#!OML:ASF F:\VICON\USERDATA\INSTALL\rory3\rory3.ASF
:FULLY-SPECIFIED
:DEGREES
449
root 5.08433 17.0226 2.04244 7.48713 -11.6491 -8.19426
lowerback 21.6896 -0.501058 2.55119
upperback 5.181 -0.00814774 1.73778
thorax -6.45345 -0.0538807 0.426123
lowerneck -15.2388 -0.524387 -0.745403
upperneck 39.7112 -0.243479 -1.33366
head 17.0074 -0.482997 -0.536535
rclavicle -1.64991e-014 -2.78299e-014
rhumerus -40.6185 -7.7052 -17.5101
rradius 35.8052
rwrist -0.31886
rhand -15.3012 -43.9189
rfingers 7.12502
rthumb 10.8743 -73.6173
lclavicle -1.64991e-014 -2.78299e-014
lhumerus -38.4098 7.81315 13.7243
lradius 28.1681
lwrist 16.5395
lhand -25.3706 -29.0597
lfingers 7.12502
lthumb 1.15361 0.916947
rfemur -102.37 0.145158 28.0196
rtibia 97.3664
rfoot 48.8154 0.297207
rtoes -3.34959
lfemur -27.8948 4.78665 -21.9752
ltibia 41.0001
lfoot -17.7643 8.27575
ltoes 14.7938
450
root 5.08317 17.0213 2.04986 7.47786 -11.7094 -8.06286
lowerback 21.6043 -0.471419 2.4635
upperback 5.18889 0.00666019 1.72388
thorax -6.40053 -0.0451762 0.456366
lowerneck -15.2042 -0.511439 -0.741323
upperneck 39.6478 -0.187135 -1.42527
head 16.9642 -0.471387 -0.566789
rclavicle -1.98785e-016 -1.47101e-014
rhumerus -40.4713 -7.92512 -17.4452
rradius 35.139
rwrist -0.0414868
rhand -16.8138 -42.654
rfingers 7.12502
rthumb 9.41505 -72.4237
lclavicle -1.98785e-016 -1.47101e-014
lhumerus -38.3942 7.57186 13.7231
lradius 28.0977
lwrist 16.7727
lhand -25.3117 -31.1292
lfingers 7.12502
lthumb 1.21048 -1.15285
rfemur -102.362 0.1085 27.9093
rtibia 97.4178
rfoot 48.6662 -0.193056
rtoes -2.78459
lfemur -27.8472 4.86344 -22.1379
ltibia 40.9867
lfoot -17.8616 8.25995
ltoes 14.9235
451
root 5.07826 17.0149 2.04757 7.56548 -11.7959 -7.97255
lowerback 21.5679 -0.408274 2.35446
upperback 5.14251 0.0653287 1.7249
thorax -6.43191 -0.0156926 0.504121
lowerneck -15.2129 -0.549061 -0.866049
upperneck 39.5895 -0.230044 -1.35139
head 16.9349 -0.496331 -0.518028
rclavicle 1.68967e-014 -8.34896e-015
rhumerus -40.5753 -8.03782 -17.42
rradius 34.7296
rwrist 0.110801
rhand -18.7739 -41.4404
rfingers 7.12502
rthumb 7.52344 -71.2866
lclavicle 1.68967e-014 -8.34896e-015
lhumerus -38.4402 7.59047 13.6491
lradius 28.155
lwrist 16.6541
lhand -24.882 -32.1382
lfingers 7.12502
lthumb 1.62556 -2.16465
rfemur -102.446 0.20878 27.8053
rtibia 97.4035
rfoot 48.5762 -0.858401
rtoes -1.73582
lfemur -27.9758 5.00762 -22.2444
ltibia 40.9674
lfoot -17.7892 8.2195
ltoes 14.5661
452
root 5.07402 17.011 2.04648 7.58098 -11.825 -7.83827
lowerback 21.4347 -0.353849 2.2934
upperback 5.22911 0.11141 1.678
thorax -6.26813 0.00848517 0.47459
lowerneck -15.2457 -0.620263 -1.04727
upperneck 39.4343 -0.345232 -1.17107
head 16.8592 -0.542981 -0.423374
rclavicle -6.36111e-015 -2.94201e-014
rhumerus -40.7236 -8.28915 -17.4159
rradius 34.5989
rwrist 0.20033
rhand -19.2674 -41.0049
rfingers 7.12502
rthumb 7.04702 -70.8676
lclavicle -6.36111e-015 -2.94201e-014
lhumerus -38.2905 7.73124 13.5558
lradius 28.0941
lwrist 16.6203
lhand -24.952 -32.1072
lfingers 7.12502
lthumb 1.55789 -2.13318
rfemur -102.486 0.220786 27.6717
rtibia 97.3948
rfoot 48.4806 -0.850914
rtoes -1.20242
lfemur -28.0537 5.12967 -22.3854
ltibia 40.9988
lfoot -17.7624 8.09377
ltoes 14.013
453
root 5.07214 17.0107 2.04783 7.56143 -11.8044 -7.77895
lowerback 21.295 -0.351294 2.33824
upperback 5.35076 0.111541 1.62966
thorax -6.06299 0.00960438 0.395268
lowerneck -15.1307 -0.654529 -1.18375
upperneck 39.1962 -0.405412 -1.03388
head 16.7019 -0.566329 -0.344626
rclavicle -6.95746e-015 7.95139e-016
rhumerus -40.7138 -8.52382 -17.4725
rradius 34.5234
rwrist 0.203374
rhand -19.3172 -40.6661
rfingers 7.12502
rthumb 6.99896 -70.5304
lclavicle -6.95746e-015 7.95139e-016
lhumerus -38.1699 7.5912 13.5503
lradius 28.2095
lwrist 17.0574
lhand -24.7772 -31.0761
lfingers 7.12502
lthumb 1.7267 -1.10337
rfemur -102.465 0.170312 27.6446
rtibia 97.3637
rfoot 48.4125 -0.370466
rtoes -1.71313
lfemur -28.0656 5.24043 -22.4489
ltibia 41.0487
lfoot -17.7804 7.94806
ltoes 13.9103
454
root 5.06987 17.0116 2.04376 7.65626 -11.7101 -7.88616
lowerback 21.2294 -0.403213 2.46898
upperback 5.36661 0.0716173 1.66318
thorax -6.01158 -0.0105185 0.366757
lowerneck -15.0968 -0.664478 -1.21403
upperneck 39.0741 -0.41046 -1.03348
head 16.628 -0.571886 -0.338233
rclavicle 0 -7.95139e-016
rhumerus -40.574 -8.59243 -17.5735
rradius 34.5077
rwrist 0.188004
rhand -19.5706 -40.6235
rfingers 7.12502
rthumb 6.75437 -70.4957
lclavicle 0 -7.95139e-016
lhumerus -38.1873 8.00406 13.1897
lradius 28.3822
lwrist 17.1725
lhand -24.415 -29.8652
lfingers 7.12502
lthumb 2.07658 0.104463
rfemur -102.49 0.126529 27.7812
rtibia 97.2878
rfoot 48.5441 -0.78149
rtoes -1.36637
lfemur -28.2042 5.27478 -22.3225
ltibia 41.0874
lfoot -17.8006 7.8364
ltoes 14.292
455
root 5.06682 17.0139 2.04078 7.78453 -11.6464 -8.00102
lowerback 21.1875 -0.441224 2.55748
upperback 5.31723 0.0461094 1.72719
thorax -6.04337 -0.0239364 0.391954
lowerneck -15.1614 -0.679391 -1.19797
upperneck 39.0329 -0.407091 -1.10865
head 16.6221 -0.578315 -0.373758
rclavicle -2.94201e-014 9.54166e-015
rhumerus -40.4751 -8.50491 -17.663
rradius 34.5982
rwrist 0.204376
rhand -19.3248 -41.0915
rfingers 7.12502
rthumb 6.99165 -70.956
lclavicle -2.94201e-014 9.54166e-015
lhumerus -38.4204 8.60217 12.7375
lradius 28.4944
lwrist 16.8354
lhand -24.4501 -29.2406
lfingers 7.12502
lthumb 2.04266 0.729399
rfemur -102.532 0.0997773 27.9315
rtibia 97.2224
rfoot 48.6834 -1.0169
rtoes -0.907288
lfemur -28.3572 5.27074 -22.1909
ltibia 41.1045
lfoot -17.8168 7.822
ltoes 14.3252
456
root 5.06578 17.0183 2.04299 7.82883 -11.6593 -8.09163
lowerback 21.1607 -0.450716 2.65081
upperback 5.2942 0.0561738 1.76741
thorax -6.05396 -0.0201529 0.379544
lowerneck -15.0011 -0.698933 -1.25779
upperneck 38.8053 -0.413039 -1.12372
head 16.4612 -0.58981 -0.366813
rclavicle -3.26007e-014 -7.95139e-015
rhumerus -40.5035 -8.44534 -17.6671
rradius 34.8079
rwrist 0.295287
rhand -18.0048 -41.8227
rfingers 7.12502
rthumb 8.26569 -71.641
lclavicle -3.26007e-014 -7.95139e-015
lhumerus -38.8709 8.41684 12.7469
lradius 28.7423
lwrist 16.679
lhand -25.4 -29.0372
lfingers 7.12502
lthumb 1.12521 0.939572
rfemur -102.466 0.0940392 28.0703
rtibia 97.1547
rfoot 48.6484 -0.351508
rtoes -1.58979
lfemur -28.3669 5.3172 -22.1015
ltibia 41.0938
lfoot -17.8157 7.82752
ltoes 14.0941
457
root 5.06526 17.0222 2.04661 7.81823 -11.6883 -8.13756
lowerback 21.1231 -0.436023 2.75764
upperback 5.32588 0.0950225 1.76957
thorax -5.99907 -0.00197292 0.310596
lowerneck -14.8804 -0.729975 -1.30758
upperneck 38.588 -0.441512 -1.12907
head 16.3169 -0.607165 -0.361607
rclavicle -1.03368e-014 1.98785e-015
rhumerus -40.6298 -8.48932 -17.5925
rradius 35.0757
rwrist 0.38061
rhand -16.1444 -42.7004
rfingers 7.12502
rthumb 10.0609 -72.4399
lclavicle -1.03368e-014 1.98785e-015
lhumerus -38.9283 8.13082 12.7526
lradius 28.7901
lwrist 16.8639
lhand -25.4921 -29.1516
lfingers 7.12502
lthumb 1.03625 0.825633
rfemur -102.349 0.0921943 28.1294
rtibia 97.1102
rfoot 48.6595 -0.302792
rtoes -1.3653
lfemur -28.2921 5.36829 -22.0547
ltibia 41.0349
lfoot -17.8086 7.75453
ltoes 14.2709
458
root 5.06317 17.0205 2.04919 7.76327 -11.6585 -7.96597
lowerback 21.1063 -0.434358 2.66544
upperback 5.36839 0.0716219 1.71275
thorax -5.94485 -0.011738 0.307488
lowerneck -14.9374 -0.750206 -1.26522
upperneck 38.5103 -0.449978 -1.21246
head 16.29 -0.614894 -0.406469
rclavicle 1.68967e-014 -3.97569e-016
rhumerus -40.6835 -8.51188 -17.5925
rradius 35.2021
rwrist 0.293086
rhand -15.2689 -43.1886
rfingers 7.12502
rthumb 10.9054 -72.8854
lclavicle 1.68967e-014 -3.97569e-016
lhumerus -38.4426 8.08855 12.5235
lradius 28.2665
lwrist 17.095
lhand -25.2829 -29.0167
lfingers 7.12502
lthumb 1.23831 0.95942
rfemur -102.344 -0.0188001 27.9496
rtibia 97.1712
rfoot 48.7144 -0.424918
rtoes -0.613263
lfemur -28.1945 5.31993 -22.2349
ltibia 40.9395
lfoot -17.7829 7.73076
ltoes 14.4272
459
root 5.06148 17.0194 2.05624 7.60006 -11.6112 -7.72161
lowerback 21.1771 -0.465904 2.46577
upperback 5.41361 -0.0152718 1.63976
thorax -5.93433 -0.0516951 0.36505
lowerneck -15.1234 -0.724673 -1.17202
upperneck 38.7372 -0.399002 -1.31538
head 16.455 -0.596851 -0.463846
rclavicle -1.51076e-014 -7.55382e-015
rhumerus -40.5748 -8.47536 -17.7084
rradius 35.1411
rwrist 0.140534
rhand -15.3965 -43.2873
rfingers 7.12502
rthumb 10.7823 -72.9906
lclavicle -1.51076e-014 -7.55382e-015
lhumerus -38.6606 8.82856 12.0549
lradius 28.0717
lwrist 16.3414
lhand -25.6904 -29.3357
lfingers 7.12502
lthumb 0.844811 0.642381
rfemur -102.248 -0.192906 27.732
rtibia 97.2485
rfoot 48.634 0.304339
rtoes -1.15729
lfemur -27.9627 5.2277 -22.4858
ltibia 40.833
lfoot -17.8002 7.807
ltoes 14.1205
